<svg height="208px" width="208px" version="1.1" id="Layer_1" xmlns="http://www.w3.org/2000/svg" xmlns:xlink="http://www.w3.org/1999/xlink" viewBox="-49.44 -49.44 593.28 593.28" xml:space="preserve" fill="#000000" transform="matrix(-1, 0, 0, -1, 0, 0)rotate(45)" stroke="#000000" stroke-width="0.004944"><g id="SVGRepo_bgCarrier" stroke-width="0"></g><g id="SVGRepo_tracerCarrier" stroke-linecap="round" stroke-linejoin="round" stroke="#CCCCCC" stroke-width="4.944"></g><g id="SVGRepo_iconCarrier"> <path style="fill:#576063;" d="M431.2,479.2c0,8.8-7.2,15.2-15.2,15.2H78.4c-8,0-15.2-7.2-15.2-15.2v-464c0-8,7.2-15.2,15.2-15.2 H416c8,0,15.2,7.2,15.2,15.2V479.2z"></path> <path d="M63.2,15.2c0-8,7.2-15.2,15.2-15.2H416c8,0,15.2,7.2,15.2,15.2v464c0,8.8-7.2,15.2-15.2,15.2"></path> <g> <path style="fill:#F7B208;" d="M156.8,0v19.2c0,8.8,7.2,15.2,15.2,15.2h150.4c8.8,0,15.2-7.2,15.2-15.2V0H156.8z"></path> <path style="fill:#F7B208;" d="M337.6,220.8c0,8.8-7.2,15.2-15.2,15.2H172c-8.8,0-15.2-7.2-15.2-15.2V71.2 c0-8.8,7.2-15.2,15.2-15.2h150.4c8.8,0,15.2,7.2,15.2,15.2L337.6,220.8L337.6,220.8z"></path> </g> <path style="fill:#EDA503;" d="M156.8,71.2c0-8.8,7.2-15.2,15.2-15.2h150.4c8.8,0,15.2,7.2,15.2,15.2v150.4 c0,8.8-7.2,15.2-15.2,15.2"></path> <path style="fill:#F7B208;" d="M337.6,423.2c0,8.8-7.2,15.2-15.2,15.2H172c-8.8,0-15.2-7.2-15.2-15.2V273.6 c0-8.8,7.2-15.2,15.2-15.2h150.4c8.8,0,15.2,7.2,15.2,15.2L337.6,423.2L337.6,423.2z"></path> <path style="fill:#EDA503;" d="M156.8,273.6c0-8.8,7.2-15.2,15.2-15.2h150.4c8.8,0,15.2,7.2,15.2,15.2v149.6 c0,8.8-7.2,15.2-15.2,15.2"></path> <g> <path style="fill:#F7B208;" d="M322.4,460H172c-8.8,0-15.2,7.2-15.2,15.2v19.2h180.8v-19.2C337.6,467.2,330.4,460,322.4,460z"></path> <circle style="fill:#F7B208;" cx="108.8" cy="38.4" r="16.8"></circle> <circle style="fill:#F7B208;" cx="108.8" cy="90.4" r="16.8"></circle> <circle style="fill:#F7B208;" cx="108.8" cy="143.2" r="16.8"></circle> <circle style="fill:#F7B208;" cx="108.8" cy="195.2" r="16.8"></circle> <circle style="fill:#F7B208;" cx="108.8" cy="247.2" r="16.8"></circle> <circle style="fill:#F7B208;" cx="108.8" cy="299.2" r="16.8"></circle> <circle style="fill:#F7B208;" cx="108.8" cy="351.2" r="16.8"></circle> <circle style="fill:#F7B208;" cx="108.8" cy="404" r="16.8"></circle> <circle style="fill:#F7B208;" cx="108.8" cy="456" r="16.8"></circle> <circle style="fill:#F7B208;" cx="385.6" cy="38.4" r="16.8"></circle> <circle style="fill:#F7B208;" cx="385.6" cy="90.4" r="16.8"></circle> <circle style="fill:#F7B208;" cx="385.6" cy="143.2" r="16.8"></circle> <circle style="fill:#F7B208;" cx="385.6" cy="195.2" r="16.8"></circle> <circle style="fill:#F7B208;" cx="385.6" cy="247.2" r="16.8"></circle> <circle style="fill:#F7B208;" cx="385.6" cy="299.2" r="16.8"></circle> <circle style="fill:#F7B208;" cx="385.6" cy="351.2" r="16.8"></circle> <circle style="fill:#F7B208;" cx="385.6" cy="404" r="16.8"></circle> <circle style="fill:#F7B208;" cx="385.6" cy="456" r="16.8"></circle> </g> </g></svg>